<svg width="32" height="32" viewBox="0 0 32 32" fill="none" xmlns="http://www.w3.org/2000/svg">
<rect width="32" height="32" rx="6" fill="#FAFBFF"/>
<path d="M9 20.3036V12.5815C9 12.0604 9 11.7999 9.1014 11.6009C9.1906 11.4258 9.33293 11.2835 9.50799 11.1943C9.70701 11.0929 9.96754 11.0929 10.4886 11.0929H13.5443L13.5447 16.9081C13.5447 17.2636 13.7572 17.3893 13.9023 17.486C14.0474 17.5828 14.3839 17.6772 14.6404 17.5513V20.3036C14.6404 20.8246 14.6404 21.0851 14.539 21.2842C14.4498 21.4592 14.3074 21.6016 14.1324 21.6908C13.9334 21.7922 13.6728 21.7922 13.1518 21.7922H10.4886C9.96754 21.7922 9.70701 21.7922 9.50799 21.6908C9.33293 21.6016 9.1906 21.4592 9.1014 21.2842C9 21.0851 9 20.8246 9 20.3036Z" fill="#15171A"/>
<path d="M20.9126 22.9894L17.2353 22.9751C16.8452 22.9736 16.6501 22.9729 16.5013 22.8964C16.3704 22.8292 16.2641 22.7223 16.1976 22.591C16.1221 22.4418 16.1224 22.2467 16.1231 21.8567L16.1298 18.2017C16.1314 17.3583 16.1321 16.9366 16.2994 16.7413C16.4446 16.5717 16.662 16.4819 16.8845 16.4995C17.1409 16.5198 17.4391 16.8179 18.0356 17.4141L21.7062 21.0834C22.3072 21.6841 22.6076 21.9844 22.6276 22.2415C22.6449 22.4646 22.5542 22.6825 22.3837 22.8274C22.1871 22.9943 21.7623 22.9927 20.9126 22.9894Z" fill="#15171A"/>
<path d="M14.125 15.96V9.73964C14.125 9.4835 14.125 9.35543 14.1741 9.25726C14.2191 9.16714 14.2921 9.09408 14.3823 9.04906C14.4804 9 14.6085 9 14.8646 9H21.1364C21.6932 9 21.9717 9 22.1012 9.10828C22.2186 9.20645 22.2802 9.3561 22.266 9.50849C22.2503 9.67658 22.0526 9.87265 21.6572 10.2648L15.3855 16.4852C14.9941 16.8734 14.7984 17.0675 14.6308 17.0822C14.4789 17.0955 14.3301 17.0336 14.2326 16.9163C14.125 16.787 14.125 16.5114 14.125 15.96Z" fill="#15171A"/>
</svg>
