<svg width="26" height="24" viewBox="0 0 26 24" fill="none" xmlns="http://www.w3.org/2000/svg">
<path d="M0 19.383V6.13573C0 5.2442 0 4.79844 0.173503 4.45792C0.32612 4.15839 0.569644 3.91487 0.869173 3.76225C1.20969 3.58875 1.65545 3.58875 2.54698 3.58875H7.77524L7.77601 13.5575C7.77601 14.1669 8.13962 14.3824 8.38784 14.5482C8.63606 14.714 9.21178 14.8759 9.65067 14.66V19.383C9.65067 20.2745 9.65067 20.7203 9.47717 21.0608C9.32455 21.3603 9.08103 21.6039 8.7815 21.7565C8.44098 21.93 7.99522 21.93 7.10369 21.93H2.54698C1.65545 21.93 1.20969 21.93 0.869173 21.7565C0.569644 21.6039 0.32612 21.3603 0.173503 21.0608C0 20.7203 0 20.2745 0 19.383Z" fill="#0C0C0C"/>
<path d="M20.3891 23.9822L14.0909 23.9577C13.4235 23.9551 13.0898 23.9538 12.8352 23.823C12.6112 23.708 12.4293 23.5251 12.3156 23.3004C12.1862 23.0451 12.1868 22.7114 12.1881 22.044L12.1995 15.7722C12.2022 14.3275 12.2035 13.6052 12.4899 13.2709C12.7384 12.9808 13.1108 12.8271 13.4915 12.8575C13.9304 12.8925 14.4408 13.4037 15.4615 14.426L21.7482 20.7222L21.7482 20.7222C22.7743 21.7498 23.2873 22.2636 23.3211 22.7034C23.3505 23.0849 23.1952 23.4574 22.9034 23.7051C22.5672 23.9906 21.8411 23.9878 20.3891 23.9822Z" fill="#0C0C0C"/>
<path d="M8.77148 11.933V1.26553C8.77148 0.827276 8.77148 0.608148 8.85542 0.440167C8.93246 0.285985 9.05747 0.160976 9.21165 0.0839353C9.37963 0 9.59876 0 10.037 0H20.7721C21.7238 0 22.1996 0 22.4212 0.185128C22.6221 0.352963 22.7276 0.608841 22.7034 0.869488C22.6767 1.15699 22.3392 1.4924 21.6641 2.16322L10.9291 12.8307C10.2592 13.4963 9.92423 13.8292 9.63744 13.8545C9.37742 13.8775 9.12266 13.7715 8.95566 13.5708C8.77148 13.3496 8.77148 12.8774 8.77148 11.933Z" fill="#0C0C0C"/>
</svg>
